<svg xmlns="http://www.w3.org/2000/svg" viewBox="0 0 899.01 828.78">
  <path fill="#f2e650" d="M740.04 248.28c-25.8 1.52-51.12 7.46-75.73 15.14-25.7 8.03-50.8 17.75-76.09 26.96a1359.98 1359.98 0 0 1-45.45 15.84 881.63 881.63 0 0 1-20.9 66.64 654.76 654.76 0 0 1-34.62 79.83 584.26 584.26 0 0 1-13.74 24.95 541 541 0 0 1-64.05 87.97c-.41.5-1.05.92-.91 1.66a483.2 483.2 0 0 0 .54 74.69c1.75 19.57 4.74 39.1 10.2 58a157.9 157.9 0 0 0 7.9 21.68c8.75 19.57 20.54 37.86 35.37 53.38 12.63 13.17 27.64 24.28 44.53 31.34 8.43 3.52 17.3 6.04 26.34 7.32 20.05.18 40.24.37 60.06-3.04 14.43-2.48 28.64-7.05 41.17-14.73 4.11-2.54 8-5.4 11.99-8.13 17.3-12.07 34.33-24.7 49.33-39.6a272.3 272.3 0 0 0 26.66-30.85c5.86-12.7 12.43-25.09 17.16-38.27 6.47-17.8 9.94-36.53 12.41-55.26.15-1.65.63-3.3.34-4.97a172.56 172.56 0 0 0-14.9-56.02c-7.16-15.54-16.73-30.18-29.36-41.82-.52-.4-.93-.76 0-.75 17.95-3.41 36.03-6.56 53.72-11.29a324.82 324.82 0 0 0 51.1-18.22 98.58 98.58 0 0 0 35.16-24.2c13.37-14.25 22.71-31.93 28.49-50.5a167.05 167.05 0 0 0 7.42-50.66c.4-13.78-1.32-27.73-6.09-40.71-5.15-14.25-13.77-27-23.84-38.23a202.06 202.06 0 0 0-15.6-15.56c-19.3-9.9-40.58-15.3-61.93-18.57a499.27 499.27 0 0 0-36.68-4.02zM218.95 51.27l3.65-.04c6.4-.01 11.99.3 18.1 2.23v2l3.44.25c4.09.51 7.3 1.8 11 3.57 4.08 1.87 8.32 3.32 12.55 4.83 3.18 1.42 5.38 3.07 8.01 5.35l2.44 1.9a168 168 0 0 1 17.06 15.67 40.65 40.65 0 0 0 9.5 7.43 81.02 81.02 0 0 1 3.88 3.8 70.57 70.57 0 0 0 7.68 7c3.92 3.26 6.22 7.35 8.83 11.67 1.88 2.94 4.12 5.1 6.61 7.53 5.53 6.74 9.65 13.88 13.4 21.7 1.35 2.77 2.76 5.44 4.29 8.1 2.08 3.66 3.75 7.4 5.4 11.27 1.05 2.21 2.44 3.98 3.91 5.93l.81 2.56a50.8 50.8 0 0 0 4.07 8.69 79.36 79.36 0 0 1 5.12 10.75c1.8 4.73 4.14 9.03 6.6 13.44 4.4 8.04 4.4 8.04 4.4 12.56l3 1c.77 1.78.77 1.78 1.38 4.06 1.87 6.16 5.01 10.96 9.06 15.94 4.25 5.82 6.19 13.24 8.56 20l2.19 6.06.94 2.6c.8 2.12 1.65 4.2 2.56 6.27 2.1 4.89 2.1 4.89 2.31 7.07-1.33 2.58-1.33 2.58-3.25 5.37a90.47 90.47 0 0 0-6.75 11.63l-1.45 2.32a45.24 45.24 0 0 0-3.61 8.18c-1.86 5.32-3.67 10.27-6.69 15.06-4.12 6.76-7.8 13.8-10.81 21.12a64.3 64.3 0 0 1-3.81 7.38 65.16 65.16 0 0 0-5 11.62c-2.15 6.27-4.9 11.99-7.93 17.87-2.14 4.35-3.83 8.8-5.51 13.35-1.48 3.85-3.2 7.55-4.98 11.27-3.29 7.68-5.49 15.84-7.96 23.8a184.88 184.88 0 0 1-4.5 12.92c-8.55 24.1-10.9 50.63-10.94 75.98v2.3l.02 6.57.03 3.87a42.7 42.7 0 0 0 1.14 8.39h-2l-.78 1.68c-4.13 7.85-10.18 14.61-16.24 21.03-2.07 2.25-2.07 2.25-3.55 5.01-1.43 2.28-1.43 2.28-4.43 3.28v2c-1.87 2.12-1.87 2.12-4 4h-2v2c-1.65 1.22-1.65 1.22-3.94 2.62a80.28 80.28 0 0 0-11.53 9.15c-3.7 3.26-7.62 6.22-11.53 9.23l-4.53 3.53-4.53 3.53-2.28 1.77c-2.21 1.73-4.44 3.45-6.66 5.17l-2.22 1.73-2.13 1.63-1.88 1.46c-2.71 1.8-5.64 2.37-8.77 3.18a69.9 69.9 0 0 0-12.94 7.12c-3.55 2.18-6.85 3.04-10.89 3.97a74.8 74.8 0 0 0-7.9 2.8c-16.72 6.77-32.44 8.67-50.33 8.6h-2.65c-19.13-.1-37.43-2.2-55.29-9.5v-2c-.95-.16-1.9-.32-2.87-.5-7.72-2.17-13.63-9-19.13-14.5l-2.31-1.3c-4.11-2.59-7.53-6-10.69-9.7v-2l-3-1v-3l-1.74-.63c-3.1-1.88-4.45-4.21-6.45-7.24l-2.37-3.54-1.22-1.82c-1.88-2.73-3.93-5.33-5.97-7.95-9.25-12.2-9.25-12.2-9.25-17.81h-2c-3.28-6.41-4.1-12.91-5-20h-2c-3.89-16.83-4.4-33.77-4.69-50.96-.06-3.67-.14-7.34-.23-11-.33-16.47.68-31.41 4.8-47.42l.73-3.03a84.7 84.7 0 0 1 5.52-15.68 41.75 41.75 0 0 0 2.37-6.98c1.56-5.44 3.44-10.87 7.5-14.93l2.15-5.19c1.56-3.32 3.54-6.16 6.85-7.81l1.06-2.82c6.8-16.65 24.31-31.9 38.08-42.89 2-1.6 3.98-3.23 5.94-4.9 11.33-9.66 19.34-14.8 34.42-14.64l2.96.02c13.3.2 24.9 2.4 37.42 6.84a58.42 58.42 0 0 0 9.87 2.51c4.18.7 6.83 2.33 10.25 4.88l2.56 1c2.95 1.2 4.97 3.01 7.44 5l2.5 1c2.5 1 2.5 1 5.06 3.06 2.3 1.83 3.6 2.51 6.44 2.94v2l2.19.8a21.2 21.2 0 0 1 4.98 2.61c3.52 1.97 7.04 3.03 10.9 4.15 7.49 2.2 7.49 2.2 10.11 3.57 2.37 1.13 4.27 1.17 6.88 1.18l2.6.05c2.38-.19 2.38-.19 4.1-1.65 1.94-2.68 1.94-5.5 2.24-8.71h-2l-2-2.25c-3.55-3.76-8.24-5.04-13-6.75l-2-1v-2l-6-1v-2l-3.62-1.07c-4.96-1.64-9.52-3.93-14.14-6.31a96.66 96.66 0 0 0-10.55-4.69 48.05 48.05 0 0 1-17.69-11.93l-1.94-.94c-2.91-1.5-4.77-3.72-7.06-6.06l-2.87-2.88-21.71-21.71-4.19-4.16c-1.98-2-3.71-4.01-5.42-6.25-.58-.78-1.17-1.55-1.78-2.34l-2.03-2.66a1749.24 1749.24 0 0 0-6.45-8.22 67.55 67.55 0 0 1-5.72-8.56c-1.61-3.2-1.61-3.2-3.83-5.16-2.86-2.95-4.32-6.35-6-10.06l-1.19-2.63c-.8-2.37-.8-2.37-1.3-5.62l-.5-2.75-2-1c-.75-2.23-.75-2.23-1.45-5.07a83.77 83.77 0 0 0-3.12-10.12 50.88 50.88 0 0 1-3.63-20.38l.03-2.36c.04-2.36.1-4.72.16-7.07l.04-2.07c.24-9.58 1.97-17.9 4.96-26.93h2l.25-2.38c1.13-5.47 3.25-10.63 5.75-15.62h2l.16-1.77c1.13-8.2 5.02-13.67 9.84-20.23l2.17-3.04c1.92-2.67 3.85-5.33 5.83-7.96l1.74-2.38c3.1-3.6 6.63-6.56 10.26-9.62l2.08-1.78c20.67-17.58 20.67-17.58 31.92-20.22l2.17-.95c3.73-1.39 7.47-1.98 11.4-2.62 5.19-.79 5.19-.79 10.3-1.97 4.99-1.1 10.3-.65 15.38-.65zm-33.19 13.87c-3.34 4.14-4.06 7.03-4.06 12.32.34 2.36.34 2.36 1 4h2l.69 1.8c1.75 2.93 3.18 3.83 6.31 5.2 7.06.95 12.09-1.16 18-5 3.17-3 3.17-3 4-7h2c1.44-4.5 2.15-10.7 0-15-8.9-6.74-22.6-3.87-29.94 3.68zm-37.93 24.32c-2.78 3.91-2.9 6.73-2.67 11.46.37 2.82.37 2.82 3.04 5.22 4.02 1.51 7.3 2.24 11.5 1.32a32.8 32.8 0 0 0 11-8c1.25-3.75 1.61-6.07 1-10-3.36-3.43-6.92-4.86-11.62-5.5-5 .74-8.16 2.64-12.25 5.5zm40 59.34c-8.31 12.07-9.27 24.31-8.13 38.66.83 3.72 2.11 6.7 4 10l1.17 2.34c4.45 8.65 9.67 14.87 18.83 18.66h3v2c4.96 2.48 11.79 1.9 17 .43 16.36-5.78 28.95-15.85 37.04-31.34 3.43-7.44 3.89-13.78 1.4-21.53-3.3-8.43-9-13.49-16.13-18.78a90.12 90.12 0 0 1-6.68-5.85c-8.1-7.14-15.08-10.8-25.92-10.5-11.09.69-18.78 7.38-25.57 15.9zm90.87 122.66c-4.05 6.24-2.14 15.16-.94 22.06 1.48 6.44 3.89 11.55 8.94 15.94a25.24 25.24 0 0 0 16.33.17 78.7 78.7 0 0 0 8.67-5.17v-2h2c2.23-2.85 4.07-5.96 6-9l1.88-2.63c1.89-4 1.66-7.35.54-11.58-2.46-6.62-6.6-10.02-12.42-13.8l-2.94-1.93c-10.8-3.75-20.51-.12-28.06 7.94zm-175 58-2.37.8c-4.95 2.24-9.54 5.98-11.94 10.88l-.69 2.32-1.62 1.8c-2.06 3.28-2.05 6.5-1.38 10.2 2.13 3.44 3.15 4.71 7 6 9.28 1.14 16.32-.7 24-6 4.72-4.34 9.44-9.07 10.37-15.63.2-6.17.2-6.17-2.68-11.5-7.04-4.91-14.13-3.94-20.69 1.13zm-39 36c-2.26 3.4-2.23 5.08-1.6 9.05.54 2.21.54 2.21 2.73 4.45 3.67 1.91 5.78 2.15 9.87 1.5 3.08-1.92 3.08-1.92 5-5a18.4 18.4 0 0 0-1-9.88c-2.56-2.72-4.35-3.02-8-3.27-2.98.21-4.71 1.26-7 3.15zm155.06 54.12c-2.88 4.03-4.06 6.97-3.68 11.93 1.92 9.07 5.25 19.06 11.62 25.95h3v2c6.03 2 14.05 2.17 20-.25 6.73-3.93 11.28-8.32 14-15.75 1.18-8.04.72-16.35-2-24-2.35-2.94-2.35-2.94-5-5h-2v-2c-13.07-5.2-26.24-3.94-35.94 7.12zm-89.06 55.88-3.33 1.66c-13.81 7.23-25.73 19.17-30.67 34.34-2 10.66 2.45 19.22 8 28 4.84 6.83 10.86 11.7 18 16l2.52 1.54c8.84 4.73 19.67 5.14 29.3 2.4 14.36-5.9 24.42-16.74 30.44-30.9 3.67-10.4 5.18-21.62.47-31.86-5.05-9.97-11.11-15.75-20.73-21.18l-1.9-1.11c-8.94-4.29-23.35-3.32-32.1 1.1z"/>
  <path fill="#f2e650" d="M529.12 159.18c-4.08.12-8.06.23-12.17.28-10.18.17-20.56.45-30.32 3.66-4.1 1.32-8 3.24-11.6 5.6-10.77 3.27-20.2 10.55-26.4 19.91-4.57 6.88-7.27 15.11-6.96 23.41-.45 4.72 1.65 9.22 4.2 13.05 2.87 4.47 6.58 8.37 9.05 13.1 1.17 2.24 1.83 5.07.56 7.42-.97 1.87-2.64 3.23-3.95 4.85-11.84 13.24-24.97 25.83-34.29 41.18a84.2 84.2 0 0 0-5.32 10.15c-3.46 13.43-10.05 25.75-16.5 37.94-1.81 3.4-3.55 6.83-5.35 10.23-7.62 11.57-10.72 25.29-16.83 37.6-1.1 2.3-2.56 4.42-3.5 6.8-8.95 20.08-15.6 41.07-21.77 62.14-5.7 18.54-7.27 38.04-7.81 57.34.02 1.5-.13 2.98-.36 4.47-1.02 9.23 1.94 18.62 7.33 26.1 5.9 8.26 14.7 14.53 24.6 16.97 5.67-.26 11-2.67 15.57-5.9 5.64-3.93 10.47-8.87 15.88-13.1.56-.42 1.37-1.04 2.05-1.52 1.76-1.27 3.7-2.27 5.35-3.69 9.94-7.78 17.68-18.03 23.77-29.01 4.52-8.07 8.2-16.56 11.66-25.12a366.56 366.56 0 0 0 34.86-74.99c7.35-16.13 11.31-33.53 14.66-50.86 2.74-14.04 5.13-28.17 8.84-42 2.52-3.5 3.5-7.99 2.77-12.22-.95-5.9-4.15-11.08-7.17-16.11-2.23-3.8-4.76-7.52-5.97-11.8-.71-2.37-.53-5.15 1.13-7.11a12.44 12.44 0 0 1 2.93-2.59c9.87 3.72 19.82 7.75 30.4 8.83 6.35.66 12.91.05 18.85-2.4 10.2.37 20.68-.38 30.25-4.17a41.74 41.74 0 0 0 16-11.15 31.6 31.6 0 0 0 8.34-18.01c1.09-8.7-.68-17.46-3.07-25.8-1.74-5.97-3.83-11.84-5.9-17.71-3.8-9.47-10.7-17.55-19.11-23.24-10.6-7.22-23.25-11.05-35.95-12.19a91.28 91.28 0 0 0-8.75-.34zm-31.72 19.9a20.18 20.18 0 0 1 13.42 4.95 19.59 19.59 0 0 1 7.92 12.48c1.32 7.37-.93 15.06-5.07 21.18-3.53 5.23-8.73 9.47-14.86 11.2-4.89 1.5-10.3.64-14.71-1.87-6.6-3.76-11.4-10.36-13.46-17.62-1.62-5.67-1.33-12.11 1.86-17.2 2.12-3.47 5.46-5.97 8.84-8.15 4.8-2.97 10.36-4.96 16.06-4.97zm65.92 21.68c5.3.22 10.54 2.15 14.57 5.62 4.1 2.84 6.9 7.42 7.65 12.35 1.15 7.37-1.33 15-5.82 20.84-3.71 4.83-9.21 8.55-15.38 9.1a19.87 19.87 0 0 1-16.44-6.52c-4.06-4.47-6.26-10.42-6.67-16.4-.03-.36-.06-1.2-.07-1.74-.07-6.65 2.24-13.54 7.13-18.18 4.02-3.7 9.64-5.3 15.03-5.07zm-120.07 95.3c2.99 1.73 5 4.85 5.6 8.22.94 5.07-.1 10.26-1.54 15.14a95.99 95.99 0 0 1-7.68 17.73c-.77 1.49-1.72 2.89-2.44 4.4a78 78 0 0 1-8.6 17.58c-2.47 3.66-5.24 7.3-9.01 9.7-2.01 1.3-4.72 1.93-6.92.7a11.85 11.85 0 0 1-4.04-3.89c-.48-4.97-.27-10 .52-14.93a69.58 69.58 0 0 1 3.47-13.11c4.65-12.66 12.28-24.04 21.11-34.16.71-.8 1.6-1.8 2.41-2.65 1.92-1.97 3.98-3.92 6.52-5.06l.6.33zm-59.42 126.9c2.5.2 4.18 2.42 5 4.6 1.65 4.34 1.6 9.13.93 13.66-.77 4.56-2.23 9.2-5.3 12.75-.56.74-1.42 1.2-1.98 1.91-3.46 7.1-4.8 15.1-8.86 21.92-1.66 2.76-4.15 5.39-7.5 5.84-1.6.25-3.24.04-4.8-.37a23.86 23.86 0 0 1-3.99-15.39c.57-7.33 3.6-14.17 6.9-20.64 3.57-6.95 7.76-13.57 11.13-20.62 1.27-1.5 3.1-2.35 4.89-3.1a8.37 8.37 0 0 1 3.58-.57z" class="UnoptimicedTransforms"/>
  <path fill="#ecdb35" d="M490.77 277.96c1.36 5.9 5.16 10.76 8.01 15.98 1.9 3.43 3.21 7.42 2.5 11.38-.85 3.84-1.8 7.67-2.6 11.53-4.05 18.75-7.25 37.74-11.64 56.36a294.48 294.48 0 0 1-8.56 29.8c-1.38 4.16-3.25 8.13-4.9 12.18-4.32 10.33-8.51 20.72-13.1 30.93-.68 1.45-1.42 3.11-2.1 4.56a254.88 254.88 0 0 1-9.24 18.13c-6.34 8.23-10.06 18.03-14.15 27.48-2.42 5.65-5.1 11.22-8.51 16.34a69.27 69.27 0 0 1-7.3 9.74 91.38 91.38 0 0 1-16.02 13.9c-.55.38-1.35.93-2.02 1.37a185.08 185.08 0 0 1-20.2 11.41c-2.68 1.3-5.35 2.65-8.07 3.85-2.33.7-4.89 1.52-6.35 3.6-1.11 1.56-.7 3.78.61 5.1 2.18 2.23 5.26 3.29 8.22 4.05 3.23.77 6.65 1.08 9.9.27 10.39-.65 20.28-4.74 28.94-10.37 5.67-3.7 10.94-8 16-12.5 17.62-15.77 31.5-35.24 43.18-55.68 8.87-15.53 16.6-31.67 24.1-47.89 8.86-20.32 19.05-40.18 25.34-61.51a142.4 142.4 0 0 0 5.21-26.04c3.34-15.35 6.59-30.94 5.98-46.74a88.01 88.01 0 0 0-1.63-13.79c-2.37-3.72-6.33-6.09-10.43-7.49-7.99-2.8-16.66-3.1-24.53-6.28-2.84-1.12-5.29-2.97-7.9-4.51l1.26 4.84z"/>
  <path fill="#f6c217" d="M549.82 610.62c13.2 8.42 25.7 18.2 29.44 34.22 1.72 10.21.13 18.96-5.55 27.66a209.11 209.11 0 0 1-7 8.96l-2.02 2.5c-6.35 7.6-15.12 15.35-25.26 16.83-8.97.63-18.1 1.18-25.57-4.44l-2.16-1.9-2.57-2.08c-9.86-8.38-21.43-21.17-22.68-34.6-.57-14.03 6.56-24.93 15.31-35.44 12.65-13.6 30.7-21.56 48.06-11.71zM165.7 476.46c14.8 5.75 22.92 22.23 22.41 37.53-.18 13.87-6.85 27.32-17.53 36.12-13.6 12.88-35.63 13.1-51.26 3.83-13.58-7.77-23.53-23.18-21.85-39.16 2.17-15.13 12.63-28.21 25.63-35.78 12.68-7.32 29.35-10 42.6-2.54zm61.08-342.06c13.22 9.7 28.42 19.55 35.78 34.58 4.97 19-9.97 36.41-25 46-10.24 5.88-23.83 10.38-34.58 3.1-31.56-14.73-31.44-66.7-.58-82.12 7.46-3.89 16.47-4.27 24.38-1.55zm557.98 206.56c10.7 8.37 15.41 22.69 13.65 35.93-2.1 17.96-13.39 34.85-29.82 42.7-13.8 7.49-31.63 3.26-42.62-7.31-8.04-7.4-12.63-18.8-10.57-29.69.67-17.64 13.33-32.98 28.93-40.22 12.5-5.97 27.64-7.25 40.43-1.41z"/>
  <path fill="#f6c218" d="M239.76 409.3c8.01-.86 15.46 2.8 21.44 7.73 4.78 5.24 3.98 13.1 4.17 19.71-.22 12.06-9.76 24.24-22.5 23.94-7.45 1.04-15.24-1.94-19.32-8.43-4.24-8.95-10.11-19.4-5.83-29.42 4.42-7.78 12.85-13.79 22.04-13.53z"/>
  <path fill="#f8f2a7" d="M446.7 293.46c4.73 5.9 4.74 13.76 4 21-2.59 11.43-8.1 21.41-13.7 31.6a223.85 223.85 0 0 0-3.67 7.14c-7.68 15.46-7.68 15.46-14.63 19.26-3.69 1.18-3.69 1.18-7 1-2.67-1.57-2.67-1.57-5-4-3.25-17.04 3.77-34.5 12-49l1.65-3c4.48-7.56 16.26-26.08 26.35-24z"/>
  <path fill="#f6c218" d="M295.98 262.24c13.42-1 28.32 10.58 26.58 24.8-2.3 9.06-9.18 16.68-17.1 21.39-8.1 4.47-20.46 3.13-24.48-6.18a42.08 42.08 0 0 1-3.54-27.14c2.55-7.63 10.41-13.4 18.54-12.87z"/>
  <path fill="#f6c31b" d="M508.7 179.46c7.63 4.53 13.62 13 12.94 22.17-1.3 11.32-7.59 22.63-18.06 27.77-6.34 3.13-14.28 3.2-20.32-.67-10.6-6.16-17.47-19.21-14.68-31.43 2.7-10.17 12.16-17.42 22.17-19.58 5.97-1.28 12.37-.82 17.95 1.74zm-12 4c-1.77 2.6.44 7.1 3.8 6.26 2.6-.21 5.92-1.71 6.05-4.7-.75-3.35-5.51-4.96-8.37-3.24-.63.41-1.17.98-1.48 1.68zm-20 7c-5 4.7-4.12 13.25.55 17.86 3.47 3.83 9.81 5.36 14.13 2.05 4.37-2.67 7.47-7.93 6.23-13.11-1.08-6.05-6.58-11.63-13-11.17a11.18 11.18 0 0 0-7.9 4.37z" class="UnoptimicedTransforms"/>
  <path fill="#f5c218" d="M614.7 360.46c23.68-6.46 37.46 32.63 15.98 43.46-20.24 12.43-43.34-19.64-26.76-35.73a21.93 21.93 0 0 1 10.78-7.73z"/>
  <path fill="#f6c318" d="M533.4 528.56c13.57 11.1 2.62 30.56-8.57 38.92-13 9.63-28.75-5.1-27.5-19.08-.88-18 21.53-31.14 36.07-19.84z"/>
  <path fill="#f8f2a5" d="M386.7 420.46c5.65 4.1 7.14 11.88 5.46 18.35-.79 3.65-2.63 6.97-4.73 10-3.77 8.73-6.7 17.83-11.04 26.3-.96 6.42-7.42 12.12-14.05 10.93-4.06-.81-6.14-4.99-6.66-8.76-2.09-10.73 2.1-21.48 7.4-30.63 4.32-7.53 6.18-16.7 12.77-22.76 2.9-2.51 6.95-4.43 10.85-3.43z"/>
  <path fill="#f6c31c" d="M560.76 199.2c-13.11-.96-21.7 12.53-21.6 24.4-1.73 15.59 13.69 30.6 29.27 26.42 15-4.27 23.88-23.94 17.09-38.03-5.44-7.98-15-13.3-24.76-12.78zm-10.96 5.81-.7.78zm-1.25 2.5c9.32-2.47 22 6.07 15.21 16.12-3.74 10.34-20.15 9.32-19.64-2.7-.03-4.82 2.31-9.22 4.43-13.41z"/>
  <path fill="#f7f1a5" d="M717.64 269.08c14.1-4.38 18.97 18.8 4.97 22.1-12.85 7.24-28.1 5.16-42.18 7-14.29-1.64-6.73-20.35 4.31-21.18 10.26-4.9 21.6-7.27 32.9-7.92zM118.7 325.46c3.73 1.88 8.53 4.33 8.52 9.16.69 6.4-2.14 12.76-6.86 17.03-6.85 7.35-17.44 12.4-27.53 9.45-4.82-.88-7.73-5.45-7.5-10.16-.67-4.17 3.31-6.4 4.83-9.72 2.1-6.6 8.63-10.55 14.7-13.06 4.28-2.4 8.88-3.82 13.84-2.7zM213.39 59.7c3.37 1.9 3.86 6.22 3.59 9.7.13 2.9-.86 5.47-2.67 7.71-2.9 4.7-6.98 8.96-12.4 10.62-5.23 1.9-11.85 1.39-15.68-3.03a13.22 13.22 0 0 1-3.55-14.63c3.14-7.51 11.33-12.7 19.5-11.86 3.78-.11 7.63.21 11.2 1.5z"/>
  <path fill="#fdfaf0" d="M488.7 186.46c9.04 2.71 12.48 15.48 5.16 21.86-6.4 6.85-20.17 2.76-20.35-7.04-.72-8 6.41-17.71 15.2-14.82z"/>
  <path fill="#f8f2a3" d="M165.94 85.33a22.57 22.57 0 0 1 5.76 4.13c.6 3.3.27 6.8-1.02 9.89-1.73 1.92-3.97 3.32-5.99 4.93a14.54 14.54 0 0 1-10.85 3.38 10.28 10.28 0 0 1-7.9-3.95c-.95-1.93-.97-4.3-.98-6.45.22-1.94.06-4.24 1.49-5.75 3.52-4.35 8.87-7.72 14.64-7.29 1.66.11 3.3.5 4.85 1.1z"/>
  <path fill="#fefcf4" d="M557.36 206.88c6.62 1.53 10.91 9.37 8.03 15.68-2.48 4.92-7.88 9.97-13.73 9.2-10.33-2.68-11.47-19.41-2.1-24 2.44-1.06 5.19-1.18 7.8-.88z"/>
  <path fill="#f8f19c" d="M77.7 363.46c2.51 2.45 3.62 6.13 3.37 9.58a9.16 9.16 0 0 1-3 5.77 10.19 10.19 0 0 1-7.57 1.9c-2.75-.16-5.2-2-6.64-4.28a10.4 10.4 0 0 1 .17-10.21c1.4-2.15 3.99-3.26 6.43-3.67 2.44-.31 4.9.2 7.24.9z"/>
  <path fill="#fefaed" d="M575.5 206.87c-4.38-1.36-10.2 4.1-6.52 8.12 3.22 3.64 11.03 1.79 10.85-3.56-.05-2.29-1.87-4.7-4.33-4.56z"/>
  <path fill="#f2e650" d="M211.8 49.13c-16.42.28-32.63 5.06-46.88 13.17-16.6 9.43-30.66 23.12-40.94 39.16-7.88 14.32-15.99 28.7-20.95 44.35-2.71 8.58-4.47 17.52-4.5 26.54-.2 14.92 2.79 29.8 8.18 43.7 7.86 20.27 20.4 38.4 34.68 54.66 9.87 11.22 20.64 21.61 31.85 31.49 6.7 7.73 15.4 13.43 24.5 17.95 12.42 6.24 25.72 10.65 37.66 17.84.73.45 1.7 1.05 2.51 1.58a65.21 65.21 0 0 1 9.57 7.55c-.04 2.18-.83 4.64-2.94 5.67-2.73 1.33-5.91.98-8.8.48-6.35-1.26-12.31-3.95-17.95-7.04a60.86 60.86 0 0 1-11.7-8.17c-15.58-8.3-31.45-16.44-48.53-21.23-12.22-3.42-25.17-4.95-37.76-2.86a65.6 65.6 0 0 0-12.1 3.16c-24.16 12.73-44.77 31.75-60.36 54.08a190.86 190.86 0 0 0-28.77 63.24c-4.55 25.88-6.64 52.35-4.18 78.57a193.59 193.59 0 0 0 8.64 42.38c10.42 25.88 27.9 48.59 49 66.68 6.9 5.9 14.2 11.35 21.86 16.2a156.43 156.43 0 0 0 54.9 9.93c33.5.08 66.78-9.78 95.37-27.12a187.52 187.52 0 0 0 26.76-19.71c13.6-11.59 28.25-22.12 40.23-35.5 7.5-8.38 13.88-18.08 16.87-29.02.28-1.23.76-2.46.8-3.73-.55-8.66-.62-17.36-.25-26.04.08-1.4.15-3.05.25-4.55a254.2 254.2 0 0 1 3.88-31 269.34 269.34 0 0 1 6.08-25.4l1.1-3.69a384.5 384.5 0 0 1 8.27-23.54c14.26-37.76 30.8-74.7 50.2-110.1a43.84 43.84 0 0 0 9.5-22.7c1.07-9.76-1.19-19.56-4.73-28.6-3.57-9.14-8.46-17.68-13.49-26.08a435.69 435.69 0 0 1-8.03-15.57c-14.29-28.9-26.28-59.28-44.18-86.31-8.04-12.18-17.34-23.57-28.1-33.45-12.41-12.28-25.76-23.84-40.93-32.6-12.42-7.2-26.2-12.33-40.53-13.77-4.1-.47-8.22-.42-12.34-.6a114.7 114.7 0 0 0-3.71 0zm-8.13 10.47c1.89.02 3.83.2 5.6.85 2.89 2.22 5.77 4.83 7 8.36.9 2.5.11 5.33-1.61 7.29a12.6 12.6 0 0 1-2.2 2.12c-4.27 3.23-9.6 4.87-14.9 5.27-3.52.2-7.32-.08-10.33-2.1a6.78 6.78 0 0 1-2.82-6.29c.23-3.13 1.49-6.1 3.03-8.8a24.32 24.32 0 0 1 16.23-6.7zm-43.04 26.46c1.9.03 3.47 1.19 5 2.16 1.8 1.27 3.75 2.86 4.13 5.15.23 2.22-1.51 4-3.12 5.27a23.44 23.44 0 0 1-12.52 4.33c-2.26.05-4.83-.12-6.54-1.77-1.45-1.57-1.02-3.93-.42-5.77.56-1.6 1.28-3.2 2.23-4.6 3.12-1.97 6.26-4.33 10.03-4.75.4-.03.81-.03 1.21-.02zm53.89 49.7c8.77.12 17.22 3.48 24.46 8.28.31.22.96.65 1.4.97 7.84 5.6 14.5 13.15 18.09 22.17a28.94 28.94 0 0 1 .8 19.64c-2.57 8.26-8.21 15.25-14.84 20.66-7.45 6.02-16.34 10.4-25.8 12.06a9.4 9.4 0 0 1-3.68.13 34.93 34.93 0 0 1-20.83-10.5c-7.82-8.04-12.21-19.05-12.99-30.16-.66-9.64 1.56-19.68 7.25-27.6 1.49-1.9 2.68-4.02 4.3-5.8a27.46 27.46 0 0 1 18.1-9.65 32.1 32.1 0 0 1 3.74-.2zm82.83 128.39c8.1.34 16.06 4.74 20.33 11.7a18.91 18.91 0 0 1 2.06 15.05c-.82 4.02-2.3 8.05-5.17 11.08-3.28 3.58-8.24 5.23-13.01 5.07-7.13-.22-14.03-3.45-19.05-8.46a25.34 25.34 0 0 1-2.36-2.74c-3.08-4.08-4.66-9.41-3.67-14.5a23.46 23.46 0 0 1 6.4-11.78c3.77-3.8 9.17-5.65 14.47-5.42zm-182.36 62.41c3.75.22 6.83 3.06 8.35 6.34 2.66 5.45 1.92 12.47-2.15 17.04-.69.87-1.68 1.48-2.12 2.53-2.16 3.58-5.31 6.95-9.53 7.95-4.27 1.03-8.72-.74-11.99-3.47-3.85-3.23-6.76-7.9-7.09-13a10.15 10.15 0 0 1 3.67-8.54c2.94-2.45 6.76-3.49 10.47-4.08 2.83-2.6 6.37-5 10.39-4.77zM73.6 364.61c2.07.84 4.35 1.72 5.68 3.62.83 1.25-.13 2.72-1.07 3.58a15.4 15.4 0 0 1-8.9 3.77c-1.54.07-3.46.04-4.46-1.31-.85-1.58-.21-3.46.32-5.03.35-.82.64-1.72 1.15-2.44 1.03-.62 2.02-1.35 3.07-1.9 1.2-.15 2.42-.43 3.62-.5l.59.2zm166.07 45.97c6.92.09 13.38 3.84 17.81 9 4.8 5.53 7.55 13.11 6.3 20.43a23.06 23.06 0 0 1-4.45 10c-2.78 4.24-6.97 7.8-12.03 8.85-.63.13-1.36.24-1.85.29-6.08.58-12.06-2-16.7-5.78-5.93-4.86-10.26-12-10.78-19.75-.3-4.5.91-9.12 3.44-12.87 2.7-2.7 5.21-5.7 8.6-7.58a18.86 18.86 0 0 1 9.66-2.59zm-92.22 62.67c9.95.05 19.56 4.55 26.68 11.38 7.13 6.8 12.04 16.22 12.45 26.17a33.1 33.1 0 0 1-1 9.47c-.36 1.61-1 3.15-1.5 4.72-1.58 8.7-6.56 16.59-13.3 22.25-9.44 7.97-22.1 12.17-34.44 10.96a36.05 36.05 0 0 1-20.43-8.8c-.96-.82-2.02-1.95-2.97-2.94a39.2 39.2 0 0 1-3.22-2.64 31.04 31.04 0 0 1-9.76-18.28c-1.42-9.13.89-18.54 5.32-26.55.17-.3.54-.98.81-1.42 5.42-9.04 13.83-16.52 23.93-19.81 1.76-.41 3.24-1.48 4.92-2.1a32.7 32.7 0 0 1 12.5-2.41z"/>
  <path fill="#f7c31c" d="M501.83.02c11.87.54 24.23 2.81 31.87 8.44l2.27 1.63c24.11 11.28 17.61 55.58 11.63 72.8-6.87 19.3-16.72 43.1-24.9 61.57 27.67 1.2 47.24 12.75 61.79 19.73 14.27-35.9 29.46-79.96 53.21-105.73 21.95-19.46 50.52-27.74 72-10 16.1 16.94 21.07 35.78 13.13 56.16-3.84 11.02-19.09 22.86-29.57 27.21-20.7 4.4-30.5 1.12-40.45-17.63-10.94-25.14 17.99-49.74 37.14-37.8 6.55 6.39 6.8 15.16 3.69 22.5-2.66 2.14-4.71 2.18-8.07 2-1.87-.44-1.87-.44-3.8-2.57-2.6-11.11-3.95-10.05-12.07-5.87-8.93 19.07 7.38 27.91 23.25 21 8.69-4.9 12.69-11.82 15.75-21-.91-20.38-3.88-35.42-25.56-36.2-12.3 1.2-19.68 2.61-28.16 8.36-27.64 28.11-45.41 74.87-56.28 110.84 9.11 20.49 10.1 18.92 17.73 39.17 5.06 26.42-5.03 49.12-25.73 61.08a78.14 78.14 0 0 1-34.47 9.62c-3.54.18-7.01.62-10.53 1.13l1 12 5.27-2.27 6.98-2.98 3.45-1.5c9.7-4.12 19.28-7.8 29.66-9.7 7.26-1.53 14.29-4.03 21.22-6.66 4.78-1.77 9.62-3.4 14.45-5.05a8028.17 8028.17 0 0 0 11.64-4c4.93-1.7 9.85-3.42 14.77-5.16l2-.7c3.02-1.07 6.03-2.16 9.03-3.28 8.97-3.33 18.05-5.8 27.33-8.1a81.2 81.2 0 0 0 5.09-1.6c16.55-5.3 35.67-5.66 52.9-5.1 3.54.1 7.09.17 10.63.23 11.45.24 22.85.6 34.2 2.12l2.39.29c6.8 1.03 12.75 3.66 19 6.46l3 1.3c24.21 10.57 41.96 23.46 58 44.7l1.8 2.3c9.9 13.16 14.62 27.62 17.2 43.7l.67 3.87c3.13 20.56 1.69 40.11-3.68 60.13l-.6 2.3c-2.8 10.8-2.8 10.8-5.4 14.7a69.73 69.73 0 0 0-1.25 3.8c-7.1 21.64-18.58 38.36-34.75 54.2l-2.53 2.55c-6.02 5.77-13.12 9.65-20.47 13.45l-2.54 1.32a181.77 181.77 0 0 1-41.46 15.68l-3.92.98c-9.79 2.38-18.97 3.16-29.02 3.11h-3.4a5577 5577 0 0 1-10.66-.03l-7.26-.02c-5.91 0-11.83-.02-17.74-.04 8.81 6.89 16.32 13.01 24.25 19.5 8.62 7.59 12.35 16.73 15.75 27.5l1.01 2.78c1.8 5.87 2.07 12 2.62 18.1l.2 2.14c2.03 22.4 1.5 43.29-3.11 65.35-.68 3.41-1.19 6.8-1.66 10.25a80.13 80.13 0 0 1-8 25.25c-1.8 3.62-3.3 7.37-4.8 11.13l-.97 2.34-2.29 5.66h-2v4h-2l-.81 2.65c-7 19.75-25.98 39.97-41.75 53.4a150.5 150.5 0 0 0-9.74 9.33c-14.7 15.01-31.86 26.14-50.78 35.18-2.91 1.37-2.91 1.37-5.5 3.03a29.04 29.04 0 0 1-7.3 2.97l-2.42.69-2.7.75-3.17 1a112.16 112.16 0 0 1-14.14 2.5c-5.21.69-10.35 1.4-15.47 2.57-6.42 1.32-12.82 1.27-19.34 1.24l-3.97-.01c-17.4-.14-37.16-.8-52.85-9.05l-2.1-1.09c-23.52-12.23-44.64-29.26-60.96-50.16l-1.92-2.41c-10.78-14.07-18.92-30.03-25.08-46.6l-.74-1.93a339.17 339.17 0 0 1-5.32-15.25l-1.54-4.67-.67-2.05c-.52-1.5-1.1-2.99-1.72-4.46-3.82-10-4.65-21-5.57-31.57l-.7-7.53-.34-3.79c-.39-3.66-.92-7.28-1.47-10.93-1.15-8.44-1.27-16.81-1.24-25.32 0-2.62-.02-5.24-.05-7.87-.03-9.65.56-18.31 3.36-27.62l-2.28.97c-8.5 3.2-19.67 1.56-27.93-1.67-10.98-5.14-19.2-12.96-27.79-21.3a80.97 80.97 0 0 0-9.44 10.93c-5.3 6.98-11.37 13.19-17.56 19.38l-2.77 2.78a233.3 233.3 0 0 1-19.23 16.9 1655.75 1655.75 0 0 1-11 9l-2.13 1.74c-10.88 8.67-22.21 16.43-34.87 22.27a662.97 662.97 0 0 0-7.5 3.71c-2.69 1.38-5.3 2.86-7.94 4.35-14.6 7.96-31.59 11.38-47.85 14.36-2.61.3-2.61.3-3.7 1.58-2.54.15-5.05.23-7.58.27l-2.38.04-7.74.06-2.64.02c-40.44.09-40.44.09-51.67-7.4-2.16-.6-4.32-1.15-6.5-1.68-16.24-4.58-28.21-17.33-40.4-28.44a102.9 102.9 0 0 0-5.22-4.31c-6.43-5.73-11.22-12.98-16.08-20.04-5.25-7.48-5.25-7.48-11.53-14.06-1.27-1.46-1.27-1.46-1.27-5.46h-2c-4.38-9.28-8.63-18.57-10.4-28.74-.57-2.44-.57-2.44-2-5.19-7.45-17.3-6.27-39.18-6.18-57.63a535 535 0 0 0-.02-8.15c-.2-20.45.97-40.1 8.6-59.3 1.7-4.76 3.15-9.53 4.38-14.43a59.87 59.87 0 0 1 5.44-13.28c1.23-2.28 1.23-2.28 2.14-4.75 3.28-7.96 9.03-15.03 14.14-21.9 2.2-3.05 4.18-6.22 6.09-9.47 1.7-2.04 3.2-3.24 5.33-4.78 5.57-4.04 10.28-8.89 15.1-13.76l2.78-2.75c3.87-3.88 7.6-7.68 10.79-12.15 2.89-4.03 6.28-6.95 10.19-9.97l1.88-1.53c19.09-15.06 40.76-13.82 63.74-12.22l-2.16-2.13c-29.93-33.14-58.88-65-61.97-111.96v-21.64c.14-15.41 5.22-31.86 11.66-44.4 1.26-2.47 2.4-4.94 3.47-7.5a101.4 101.4 0 0 1 8-14.37l1.2-1.87c9.74-14.89 21.43-27.57 35.8-38.13l2.92-2.15a816.5 816.5 0 0 1 5.64-4.1c1.5-1.08 3-2.2 4.46-3.36a28.73 28.73 0 0 1 6.73-3.4l2.66-1.02 2.6-.97 2.21-.86c14.02-5.33 27.07-6.33 41.97-6.4l3.52-.02c11.65.04 22.6 1.73 33.73 5.15l2.56.74a41.77 41.77 0 0 1 13 6.39 327.3 327.3 0 0 0 6.56 3.12c16.51 8.02 29.98 21.95 42.51 35.1 2.15 1.98 4.43 3.29 6.93 4.78 5.66 4.79 9.94 10.47 14.18 16.51a35.82 35.82 0 0 0 4.7 5.36c2.33 2.34 2.92 4.09 4.12 7.13a86.02 86.02 0 0 0 2.63 4c7.77 11.42 14.65 22.99 19.48 35.96.82 2.2.82 2.2 2.9 4.04a91.02 91.02 0 0 1 1.87 4.68c1.2 3.1 2.4 5.98 4.12 8.82a52.58 52.58 0 0 1 4 8.5 56.91 56.91 0 0 0 4.06 8.68 66.6 66.6 0 0 1 4.05 8.27c3.37 7.75 7.45 15.17 11.58 22.55l1.15 2.06a63.9 63.9 0 0 0 4.84 7.64c1.46 1.99 2.07 3.68 2.76 6.05a48.68 48.68 0 0 0 3.56 8.68c2.36 4.49 3.68 9.2 5 14.07h2l.74-1.7c1.5-2.74 3.33-4.76 5.45-7.05 4-4.37 7.93-8.79 11.81-13.25a46.85 46.85 0 0 0-4.81-9.5c-6-9.95-9.95-19.75-8.19-31.5 4.91-17.67 18.52-32.71 34-42 7.7-4.34 15.55-7.46 24-10a42.3 42.3 0 0 1 9.66-2.22c5.78-.52 5.78-.52 10.27-3.89 7-11.54 12.23-25.7 16.27-38.56 1.08-3.16 2.35-6.24 3.61-9.33 8.53-21.15 16.66-42.46 9.01-65.18-2.14-4.76-6.29-6.75-10.82-8.82l-2.28-1.3c-7.38-3.7-16.65-4.38-24.72-2.7-5.23 2.91-7.6 6.13-10.83 10.45-4.62 7.22-5.88 15.08-5.17 23.55 1.65 3.54 2.71 4.8 6 7 4.7.5 5.88.35 10.56.46 4.02-.54 5.66-1.54 8.44-4.46.42-3.17.42-3.17 0-6l-1.7-.56a22.99 22.99 0 0 1-6.29-3.44c-1.29-3.07-1.45-5.72-1-9 1.44-2.57 1.44-2.57 4-4 5.97-.92 9.85.28 14.95 3.48 4.69 3.46 6.63 6.05 7.63 11.91.5 8.39-.73 13.82-6.15 20.29-8.34 7.96-16.45 9.83-27.72 9.71-8.24-.88-14.62-4.83-20.27-10.77-5.39-6.73-7.1-12.65-6.85-21.28 1.67-13.53 7.9-25.09 17.35-34.72l1.48-1.52c6.86-6.69 12.22-8.78 21.7-8.54zM192.7 54.46c-1.75.36-3.5.72-5.25 1.06l-2.42.49a121 121 0 0 1-4.63.8c-6.36 1.11-10.6 3.77-15.7 7.65-.53.4-1.05.8-1.6 1.2-14.65 11.14-28.24 22.96-38.59 38.3l-1.3 1.9c-10.37 19.37-21.69 45.57-22.5 65.6-.06 1.07-.06 1.07-.1 2.17-.54 12.36.69 23.1 5.7 34.57 1.4 3.26 1.4 3.26 1.95 6.13l.44 2.13 2 1c.48 1.6.95 3.2 1.37 4.83 1.92 6.6 4.41 14.06 9.44 18.92 2 2.06 3.39 3.97 4.94 6.37a136.8 136.8 0 0 0 9.18 12.26c2.78 3.5 5.3 7.18 7.82 10.88 2.42 2.94 5.05 5.23 7.94 7.7 18.67 29.21 116.32 52.86 100.05 76.73-2.86 2.14-5.4 1.83-8.86 1.73-30.42-9.2-55.61-28.39-87.97-38.3-9.64-2.85-19.03-3.32-29.03-3.37l-2.84-.07c-14.63-.08-24.98 8.07-35.3 17.8a135 135 0 0 1-8.05 6.77c-9.7 7.88-18.45 16.62-25.88 26.68l-1.35 1.83a44.1 44.1 0 0 0-5.1 9c-1.55 3.69-3.45 5.55-6.36 8.24-2.4 2.85-3.64 5.54-5 9l-2 2c-3 6.79-5.38 13.81-7.32 20.97-.68 2.03-.68 2.03-2.68 5.03-1.2 3.7-2.07 7.48-3 11.25l-.79 3.04c-4.04 16.18-4.46 31.49-4.1 48.07.08 3.6.13 7.2.17 10.8.27 15.89.64 32.37 4.72 47.84h2l.33 2.6c.87 6.27 1.78 11.74 4.67 17.4h2l.63 2.37c3.93 10.38 11.25 18.99 17.94 27.7 1.44 1.94 2.81 3.92 4.18 5.91l2.25 3.02h2l1 4h2l.77 1.75c2.85 5.2 7.71 9.63 12.92 12.43 3.48 1.91 5.58 3.95 8.31 6.82 4.1 4.01 7 6.7 13 7v2c18.36 7.05 35.8 9.2 55.34 9.3 1.8 0 3.6.02 5.41.05 12.39.2 23.33-.97 35.25-4.35l5.94-1.5c4.31-1.2 8.4-2.75 12.53-4.48 2.66-1.08 5.36-1.98 8.1-2.9a48.47 48.47 0 0 0 12.46-6.76 25.03 25.03 0 0 1 9.24-4.14c4.6-1.5 7.71-3.82 11.48-6.79l2.13-1.63a515.7 515.7 0 0 0 14.4-11.59c3.63-2.95 7.35-5.78 11.08-8.6 3.81-2.92 7.44-5.98 10.96-9.24a24.6 24.6 0 0 1 5.68-3.37c.89-2.96 4.3-4 6-6-.18-1.97.02-2.01 1.75-2.63 2.47-1.51 3.44-3.06 4.93-5.49 1.67-2.39 3.6-4.44 5.57-6.57 14.6-17.83 14.9-17.7 14.26-20.37-1.06-7.5-.75-14.34-.76-21 .04-25.63 2.88-52.76 12.06-76.88C363.3 364.89 374.13 344.1 402 295.4l1.23-2.16c.8-1.43 1.62-2.85 2.45-4.26l1.14-2 1.03-1.77a19.58 19.58 0 0 0 1.86-5.76l-3-4c-.71-2-1.41-4.01-2.05-6.04-1.25-3.9-2.6-7.78-3.95-11.65l-.75-2.2a90.52 90.52 0 0 0-8.19-17.11l-1.57-2.62c-1.17-1.87-2.41-3.7-3.68-5.51-2.21-3.52-3.45-6.95-4.8-10.87h-2c-.1-.56-.18-1.12-.27-1.7a32.14 32.14 0 0 0-5.38-13.21c-3.52-5.42-6.11-11.33-8.42-17.34-1.54-3.99-3.53-7.22-5.94-10.75-.68-2-1.34-4-2-6-.64-1.2-1.3-2.4-2-3.57-2-3.43-2-3.43-2.85-5.66-1.85-4.46-4.37-8.54-6.78-12.72a88.73 88.73 0 0 1-4.91-9.71 43.94 43.94 0 0 0-5.33-8.97l-2-2.73c-2.1-2.71-2.1-2.71-4.68-5.14a38.43 38.43 0 0 1-5.82-7.94 79.42 79.42 0 0 0-22.7-22.58c-3.54-2.4-6.3-5.21-9.24-8.3a124.38 124.38 0 0 0-15.69-13.68l-2.36-2.03c-2.89-2.16-5.5-3.26-8.89-4.47-26.22-10.03-45.33-15.18-71.75-8.5zm306.98 108.02c-19.58 1.87-42.34 15.35-52.35 31.66-3.8 7.76-5.21 15.28-2.57 23.69.62 1.22 1.27 2.43 1.94 3.63l1.76 3.31c1.72 3.24 3.47 6.47 5.24 9.69h2l.38 1.93.62 2.07 2 1c.6 2.64.74 5.29 1 8l-2.18.67c-3.5 1.65-5.32 3.68-7.88 6.58l-1.43 1.6-3 3.42a307.37 307.37 0 0 1-4.47 4.96c-12.44 2.14-29.48 53.77-33.04 53.77l-.95 2.4c-6.86 14.3-12.37 26.1-20.27 40.66-3.03 5.17-5 10.27-6.8 15.99a89.1 89.1 0 0 1-4.24 10.2c-.87 1.74-.87 1.74-.74 3.75h-2c-.8 1.49-1.59 3-2.37 4.5l-1.34 2.53a50.3 50.3 0 0 0-2.74 8.85c-.95 3.68-2.37 7.19-3.74 10.74a528.81 528.81 0 0 0-10.06 29.99c-.63 2-1.3 4-1.97 6-2.45 7.31-3.75 14.59-4.83 22.2-.86 6.1-.86 6.1-1.95 7.19-1.44 9.17-1.32 18.57-1.4 27.83l-.1 5.6c-.07 2.72-.1 5.44-.12 8.17l-.08 2.5c.02 6.56 2.36 10.11 6.7 14.9l1.37 1.54c5.57 6.1 11.51 11.26 18.63 15.46l2.2 1.6c6.82 3.4 16.9 2.88 24.07.71 13.82-6.04 26.06-15.18 36.32-24.81 10.7-10.54 19.45-21.37 27.1-31.8 25.37-41.87 36.93-65.2 56.48-110.17a161 161 0 0 1 3.64-9.78c4.02-10.26 5.73-20.58 7.1-31.46.58-4.44 1.34-8.15 3.1-12.3.4-2.34.75-4.7 1.05-7.06.86-6.66.86-6.66 1.46-8.8 1.04-4.64.67-9.53.67-14.26l.04-3.3c0-6.77-.6-13-2.23-19.57a258.65 258.65 0 0 0-12.75-3.4c-22.1-5.3-22.1-5.3-26.25-11.6-.51-2.91-.34-5 0-8 2-2 2-2 5.5-2.44 3.55.08 5.7.93 8.75 2.69 5.1 2.77 10.18 3.94 15.81 5.06l2.55.52c16.97.58 26.9-.7 40.28-1.34 10.25-3.22 11.19-4.67 16.11-6.5 26.41-13.96 23.39-35.22 15-60-18.77-40.65-57.54-44.12-95.02-40.97Zm222.02 97.98c-2.06.2-4.12.35-6.19.43-6.57.44-12.48 1.82-18.8 3.57l-4.07.99c-12.96 3.18-25.45 7.53-38.02 11.98a468.1 468.1 0 0 1-11.48 3.84 116.74 116.74 0 0 0-13.01 5.15c-4.46 1.9-9.08 3.32-13.68 4.82-3.2 1.04-6.38 2.12-9.56 3.22a259.25 259.25 0 0 1-14.88 4.37c-6.28 1.7-12.47 3.6-18.62 5.75l-2.12.73a53 53 0 0 0-10.57 5.15c-1.9.76-3.8 1.4-5.74 2.05-4.92 2-4.92 2-9.26 4.95a28.31 28.31 0 0 0-1.23 7.68l-.36 4.6-.18 2.38a105.2 105.2 0 0 1-1.78 10.87l-.43 2.13-.89 4.27-1.3 6.4a224.94 224.94 0 0 1-6.66 25 290.7 290.7 0 0 0-4.18 14.77c-.98 2.86-2.13 4.55-3.99 6.9-.8 1.9-.8 1.9-1.37 3.93-2.83 8.94-6.15 17.6-10.61 25.85-3.87 6.21-6.36 12.01-9.87 18.87a632.32 632.32 0 0 1-25.9 45.64c-1.8 2.93-3.52 5.91-5.21 8.9-6.1 10.69-12.33 20.27-20.68 29.3-2.14 2.37-4.12 4.88-6.1 7.38-8.08 9.87-17.5 18.56-28.53 25.05-5.06 3.85-5.47 10.72-6.34 16.75-.95 8.95-.64 18.05-.6 27.04l.03 10.7a8076.86 8076.86 0 0 0 .02 10.03 3720.25 3720.25 0 0 1 .03 5.59c-.09 1.97-.09 1.97 1.13 2.97.4 2.95.74 5.9 1.05 8.86l.62 5.57.95 8.77c1.14 10.75 2.43 20.66 6.38 30.8.53 1.65 1.04 3.3 1.53 4.97 2.29 7.58 4.52 14.87 8.33 21.85a56.27 56.27 0 0 1 2.95 6.99c2.97 7.66 7.7 14.47 12.25 21.26 1.94 2.93 1.94 2.93 3.26 5.34 2.43 3.74 5.47 6.8 8.56 10.02 6.96 7.31 6.96 7.31 9.75 10.77 8.12 9.58 23.43 22.44 35.43 26.36 3.27 1.14 6 2.6 8.94 4.44 14.32 6.32 32.5 5.3 47.94 5.3l2.2.02c7.43.02 14.56-.18 21.82-1.89 2.74-.58 5.38-.57 8.17-.56 13.53-.83 29.13-5.93 40.1-13.9 3.05-2.17 6.2-4.04 9.42-5.93 6.9-4.07 13.24-8.16 19.01-13.78a121 121 0 0 1 5.84-5.26c5.32-4.64 10.3-9.62 15.3-14.61l4.91-4.88a214.66 214.66 0 0 0 18.3-20.51l1.5-1.92c6.25-8.1 11.12-16.5 15.41-25.77 1.2-2.56 2.43-5.11 3.66-7.66 6.54-13.73 10.95-26.44 12.42-41.65l2-6c4.46-19.83 2.58-41.46.81-61.57l-.3-3.8c-1.38-13.8-5.45-24-15.5-33.63l-2.36-2.34c-20.45-17.4-45.25-28.32-64.4-33.16-15.65-5.16-52.45-10.61-51.45-26.31 1.1-16.31 81.96 17.55 101.92 17.97l2.72.02h11.62c34.2-.09 65.95-2.93 96.7-19.19l2.95-1.53c11.48-6 11.48-6 21.35-14.28l2.55-2.62a255 255 0 0 0 9.4-10.57l2-2.38a45.64 45.64 0 0 0 4.87-8.18c1.53-3.16 3.06-6.32 4.7-9.43 3.76-7.15 6.2-14.25 8.42-22l2.06-6.26c4.73-15.65 5.42-30.48 4.94-46.75l-.06-2.57c-.7-25.86-9.36-44.7-27.1-63.39-2.2-2.32-4.22-4.72-6.21-7.22-8.22-9.37-18.6-14.74-30.23-18.56-3.1-1.15-4.81-2.3-7.4-4.26-14.44-6.16-29.86-5.72-45.27-5.87-5.03-.07-10-.43-15-.9-4.19-.35-8.35-.4-12.54-.41l-2.4-.04c-4.97-.01-9 .76-13.79 2.22z" class="UnoptimicedTransforms"/>
</svg>
