<svg xmlns="http://www.w3.org/2000/svg" viewBox="0 0 642 293">
  <path fill="#77b1d8" d="M297 13c-23 0-43 16-62 28-18 18-33 41-34 68-4 31-2 64 10 94 0 23 24 33 43 33 21 4 44 4 64-6-5-24-8-49-6-74 7-28 12-57 27-82 21-11 6-37-7-49-9-9-22-13-35-12zm-20 18c22 5-12 29-11 8 1-5 6-9 11-8zm-27 25c22 5 6 33-4 42-14 21-41 3-24-17 6-11 14-25 28-25zm264 43c-30 0-57 13-84 24-24 14-34 46-28 72 3 23 19 42 43 42 25 7 51 14 77 8 26-5 52-5 78-10 23-6 29-33 28-54-1-18-7-37-22-49-22-21-51-33-81-33h-11Zm-53 37c26 0 38 36 23 55-14 23-56 14-57-13-2-20 12-43 34-42zm112 6c23 2 37 30 24 50-10 21-44 21-51-3-10-20 7-44 27-47z"/>
  <path fill="#77b1d8" d="M205 48c-25 2-48 19-60 42-16 29-20 65-13 98 5 14 5 33 20 41 16 6 33 5 50 5 10-12-5-26-6-39-9-28-10-59-7-88 5-17 6-35 18-49 3-3 3-9-2-10zm138 42c-8 18-14 38-20 57-4 18-5 37-2 55-2 16 12 30 28 32 16 1 32 3 47-1 17-8-5-22-5-34-7-31 4-66 31-83 14-8 9-28 0-39-26-29-59-31-79 13zm37-22c16 6 4 28-8 32-17 4-20-19-6-25 4-3 8-7 14-7zm-203 2c17 5-7 25-9 8-1-5 5-8 9-8zm-20 23c16 3 9 22 3 32-7 19-28-1-18-14 2-8 6-17 15-18zm-44 27c-7 0-14 4-20 8l-7 6-5 6c-9 12-14 27-16 41-1 9-2 17 0 25 0 4 2 9 5 12l5 7c8 2 17 2 26 2h6l7 1 9-1h2l4-4v-4l-1-6-4-10a306 306 0 0 1-6-37l1-24v-12l1-3 1-7h-8z"/>
  <path fill="#3e8dcf" d="M473 136c19 7 23 36 13 52-8 16-31 23-47 12-20-13-17-46 1-60 9-7 23-10 33-4Z"/>
  <path fill="#3e8ecf" d="M579 141c17 3 26 22 24 37-2 16-13 32-30 32s-31-16-31-33c-1-15 8-34 25-37 4-1 8 0 12 1Z"/>
  <path fill="#64a1cf" d="m414 227 11 10a112 112 0 0 0 62 23c14 2 29 1 44 1 16-3 32-4 47-9a96 96 0 0 0 22-10c4-3 18-9 14-13a473 473 0 0 1-205-7l5 5z"/>
  <path fill="#9FC9E4" d="M257 56c6 5 6 5 7 9 0 6-2 10-4 15l-1 3c-6 10-15 23-26 27h-11c-3-3-6-6-7-10-1-9 4-16 8-24l2-3c7-12 18-25 32-17z"/>
  <path fill="#64a1cf" d="m217 223 4 9 9 7 21 8 11 5c4 2 9 3 14 3 8 1 16-2 24-4l7-3 12-5c2-3 4-6 4-10 0-3-2-5-4-8h-4c-10 4-21 6-31 6l-12 1h-3a85 85 0 0 1-8-1c-13-2-26-6-39-10l-7-2 2 4z"/>
  <path fill="#9fc9e4" d="M162 91c8 4 8 14 5 21-3 9-6 18-14 23-9 3-16-5-15-13 1-10 5-20 11-27 4-3 8-5 13-4Z"/>
  <path fill="#9fc8e4" d="M95 146c6 4 8 11 7 18-2 7-6 14-12 19-3 3-8 4-11 1-6-3-9-11-8-17 2-9 14-20 20-21h4Z"/>
  <path fill="#64a1cf" d="m326 221 4 10 6 6c5 5 11 10 18 13l9 2h2c9 1 19 0 28-4 4-1 7-4 10-6 4-2 6-5 6-9 1-4-4-9-9-9l-6 3h-5a105 105 0 0 1-9 1h-19a25 25 0 0 1-11-1l-17-7-8-2 1 3z"/>
  <path fill="#9fc9e4" d="M384 68c9 5 6 19 0 25-7 6-17 14-25 7-9-7-2-19 5-25 5-5 12-11 20-7Zm134 42c5 8-1 18-10 19-8 2-18 5-25-1s-2-16 6-18c9-3 20-6 29 0Z"/>
  <path fill="#63a1cf" d="m147 222-2 2v6l5 6 6 4 8 8c3 3 7 4 10 4h8c9 1 18-1 25-7 2-1 4-3 5-6 2-4 1-9-3-11-2-2-5-2-8-1h-29l-9-1-14-4h-2z"/>
  <path fill="#77b1d9" d="M50 192c-4 0-7 2-10 4l-14 11c-4 4-7 9-9 14s-3 10-2 15l3 7a269 269 0 0 0 29-8c4-1 8-2 11-5l2-4a106 106 0 0 1-7-20l-1-10v-4h-2zm-12 16h2l3 2c1 4 1 8-1 12-2 3-5 5-8 6a154 154 0 0 1-9 0l-1-7 2-5 2-2 2-1c2-2 3-4 6-5h2z"/>
  <path fill="#63a1cf" d="m125 215-1 4-3 1-12 2-16-2-10-2c-3-1-6-1-9 1l-3 6 2 3c7 4 14 9 20 15 5 3 12 4 17 3 6-1 11-3 16-6 4 0 7-3 9-6 2-5 1-10-2-13l-6-8h-1l-1 2z"/>
  <path fill="#f7fafd" d="M565 161c3 1 6 4 6 7 2 5 0 10-3 14-2 3-5 4-9 4-3 0-6-2-8-6s-2-10 1-14c1-3 5-5 8-5h5z"/>
  <path fill="#9fc9e4" d="M41 206c5 1 6 8 5 12-2 6-7 12-14 12-7 2-12-4-11-10 2-6 8-10 13-14h7Z"/>
  <path fill="#f5f9fc" d="M447 157c19 6-5 37-14 18-3-9 4-22 14-18Z"/>
  <path fill="#9EC8E3" d="M274 29c5 0 7 1 11 4 2 3 1 5 1 9-2 4-3 5-6 7-5 1-9 1-14-1-2-5-2-8-1-13l5-5 4-1z"/>
  <path fill="#63a1cf" d="M58 221c-2 0-4 1-4 3l-14 6-15 4c-4 0-8 4-8 8 0 3 3 6 6 7h8l19-5 15-6 1-4c0-3-1-6-3-8-1-2-2-4-5-5z"/>
  <path fill="#9dc8e3" d="M180 69c2 2 5 4 4 7v8c-3 3-8 5-12 2-5-1-7-6-5-11 1-4 6-7 10-6h3Z"/>
  <path fill="#e4eff8" d="M579 147c9 0 9 14 2 17-8 5-16-6-11-13 1-3 5-6 9-4Z"/>
  <path fill="#eaf3fa" d="M457 139c11 0 12 20 1 20-10-1-13-17-3-19l2-1Z"/>
  <path fill="#9fc8e4" d="M108 132c5 4 5 13-2 15-6 2-13-5-10-11 2-5 8-5 12-4Z"/>
  <path fill="#3f8ecf" d="M336 10c11 11 21 23 26 37 36-8 82 16 82 53 16-6 33-11 47-14 11-2 21-2 32-1 21-1 38 6 57 14 15 8 30 17 41 28 34 33 27 117-29 133-62 23-126 14-176-14-5 8-3 20-3 30l6 1 4 1c2 3 1 6 1 10-26 15-28-7-28-27l-2 1c-10 1-23 5-31 2v12c5 4 10 1 9 10 0 6-18 9-24 1-4-8-2-19-1-27-6-3-11-7-15-11-11 5-21 13-31 13v11c9 3 13 6 12 9 0 6-15 12-26 7-3-2-3-5-3-8v-14c-13 0-21-3-31-6v12c23 9 6 20-10 15-9-6-7-20-9-30-13-9-14-8-26 1-2 5-1 11-1 16 20 6 12 16-3 16h-2c-3 0-6 0-8-2-5-7-4-17-4-25-7 0-16 1-21-2l-1 14c4 0 9 0 11 2l1 9-2 1-3 4c-15-1-23 0-23-17v-18c0-5-3-10-6-13l-20 9-1 21 10 5v7c-1 8-19 5-22 3-3-5-5-8-5-14v-17c-7 1-13-2-19-4v21l9 1c2 4 2 6 2 10l-1 4c-8 3-17 0-24-3-6-9-4-28-4-38l-3 1c-17 5-35 16-51 11-8-5-14-13-16-23-1-9-1-18 4-26l2-3c10-14 28-32 45-32v-3c4-24 15-44 35-59 9-6 19-10 30-10h7c6-35 47-65 73-71 10-2 22-2 31 0 9-12 32-24 46-29 17-4 46-6 62 5ZM236 43l-1 1c-5 4-8 9-11 14l-5 5c-8 9-10 19-13 30l-1 4c-7 42-2 105 21 134 8 6 17 9 26 12 26 8 47 9 68-8-28-71 6-153 29-178-15-60-86-38-113-14Zm-84 39c-11 16-16 30-19 48-4 42 1 86 30 112l6 4c13 2 29-2 40-10-20-45-42-110 0-186-23-1-43 16-57 32zm210-16c-27 26-51 134-24 169 21 17 49 16 68-2 0-3-2-6-4-9l-3-4-1-1-7-14-1-3c-6-18-3-41 5-59 7-14 17-24 31-32 3-2 3-3 3-7 1-44-46-51-67-38zm118 40-15 5-15 6c-8 3-15 6-22 11l-3 2c-14 9-18 21-21 36-2 13-2 27 4 38l3 7c35 66 160 55 203 14 17-22 16-56 2-78-2-4-6-7-9-10l-2-2-3-3-2-2c-7-7-16-12-25-16l-2-1c-36-14-66-12-93-7ZM90 133a75 75 0 0 0-23 51c-5 26 16 56 41 58l24-9c-20-35-17-78-13-111-14 0-20 5-29 11zm-64 76c-7 7-9 15-9 25 0 4 2 7 4 10 12 4 31-5 42-9-7-15-10-27-13-41-8 0-18 10-24 15z"/>
</svg>
