<svg xmlns="http://www.w3.org/2000/svg" viewBox="0 0 420 912">
  <path fill="#FEFEFE" d="M419 221h1v691H110c3-3 5-4 10-5a99 99 0 0 0 22-7l14-7 3-1a251 251 0 0 0 32-21l3-1 4-4c6-3 10-7 14-11l5-5 11-11 3-3 4-4a190 190 0 0 0 31-43h2v-2l5-11 1-3 10-21h2v-2l5-12a1769 1769 0 0 0 16-40l7-24a347 347 0 0 0 16-71c2-7 1-13 1-20a10771 10771 0 0 1 0-37c1-14-2-26-11-37l-16-22a299 299 0 0 0-17-24l-2-2-2-6h-2l-3-5-10-14c-6-7-12-15-17-24l-14-17-10-11a251 251 0 0 0-14-17l-5-3a7028 7028 0 0 1 0-58c0-17 0-17 3-25 2-2 5-1 7-2l7-1 20-2c11 0 23-1 34-4l21-4c6 0 12-2 17-3l14-3c4 0 8-1 11-3l16-2 32-7 12-3 5-4h2l-1-7-5-4v-3h2c6-2 10-3 14-8zM0 262c3 1 4 2 6 6l2 9 1 6 6 4 2 7v2c4 2 8 2 13 0l2-1c13-5 26-4 39-4a688 688 0 0 0 107-7h10c2 5 3 9 3 15l1 2v10a1850 1850 0 0 1 0 43c0 13-3 21-11 31l-2 3-13 14-13 16-6 8-1 2a769 769 0 0 1-28 41c-4 6-7 12-12 17-13 15-17 37-21 56l-3 9v3l-2 5a60 60 0 0 0-3 14v2l-6 37a440 440 0 0 0-6 96c0 18 0 36 2 54v3a862 862 0 0 0 2 19l7 37a1234 1234 0 0 1 9 31l3 10 5 13 3 8 8 19 3 7 3 3H0V262z"/>
  <path fill="#C87A45" d="m193 91 4 3 3 1 3 5 4 2a224 224 0 0 1 21 17l13 10 7 5c7 6 13 9 23 9h3c12 0 12 0 23-3l8-2h3l3-1h3l22-2 19-1 4-1a1149 1149 0 0 0 20-2l2-1h6c3 2 3 4 3 7l-1 5h2c4 1 7 3 10 6v6l-2 2v11l-2 2 1 7h3l6 3c2 2 3 5 3 8-2 4-5 6-8 8l-2 2v2l5 3 1 3v6h4c3 0 4 0 7 2 2 3 2 3 2 7-1 3-2 5-5 7l-11 2v3l3 1-7 1-3-1h-2l6-3-1-3a249 249 0 0 0-55 6l-3 1h-7l-25 4a546 546 0 0 1-88 10l-3 1-13 2-17 2h-4a3900 3900 0 0 1-56 5h-7l-27 2h-3c-4 0-4 0-7 2l-17 1c-9 0-17 1-26 3l-18 3c-4 0-6 1-9 3l-2 6c0 3 0 3 2 5l5 1-1 3 1 10-3-1v-7l-3-3-2-1c-3-2-3-2-4-6l-1-6c0-5-2-7-5-11v-8l4-4-1-2-1-10c3-4 6-5 10-6l-2-1c-3-4-3-7-3-12l-1-4c-1-7-1-7 2-11l6-2v-9h-3c-4-1-5-2-8-6v-9l5-5-1-4 2 1 9 2 1-3h3c28 1 28 1 56-3 10-2 20-2 31-2 16 0 32-2 48-5 12-1 23-3 35-3 7-1 11-2 16-6 4-4 3-8 3-13-1-9-8-14-15-20l-8-8a116 116 0 0 0-8-6l-2-2 2-1v-2c1-3 2-3 4-5h8v-2z"/>
  <path fill="#FDFDFD" d="M0 0h319v1h-3a1259 1259 0 0 0-15 1c-12 0-12 0-22 4-3 2-7 2-10 3v2l-3 1c-15 7-27 17-35 31l-1 13v2l1 11h2l3 4 4 5 2 5-5 7-5 11-11-7a3220 3220 0 0 0-10-9c-6-4-6-4-13-6l-5 3v11h-4l-6 2-2 5-4-1v-2l-10 1c-2 3-2 5-1 9 3 6 8 10 13 15a171 171 0 0 1 15 13l2 2v2l-19 2-22 3c-18 3-36 4-54 4-10 0-19 1-28 3a178 178 0 0 1-46 3h-6c-5 0-8 0-12 3l-1 5v2l1 9 4 1-3 1-5 3c-1 4-1 8 2 11l8 4v9l-3 1-4 4v6l1 4v5l3 9 2 1-2 1-2 1-2 1-4 3c0 5 0 8 2 12l-2 2c-3 3-3 6-3 10H0V0z"/>
  <path fill="#3F8ECF" d="m208 273 4 4-2 11-1 10v3a1192 1192 0 0 0-1 24v13a11036 11036 0 0 0 2 26c3 1 4 3 7 6l1 1a397 397 0 0 1 18 21c8 9 15 17 20 28l6 8 9 11 1 2c9 11 9 11 9 14h2l3 4 10 15 7 10 1 2a281 281 0 0 1 15 21l1 2 6 6 3 5v2l1 3 1 3c2 7 1 13 1 19a6992 6992 0 0 0 0 40c0 9-1 17-3 26l-3 16c-3 17-8 34-13 51l-1 3-3 10-1 3-2 8-1 2-8 21-11 25h-2l-1 2-6 15c-4 7-7 13-9 20h-2l-1 2c-1 4-3 7-6 10l-1 2a1714 1714 0 0 1-22 28l-4 6-6 5-8 8c-7 9-15 15-24 21l-15 9a164 164 0 0 1-54 27c-12 4-12 4-17 4-7-9-11-20-14-31l-4-11-6-16-4-13a157 157 0 0 1-7-29v-3l-3-11-2-18c-1-8-1-16-3-23a252 252 0 0 1-1-47v-11c0-44 0-44 2-63l1-3a356 356 0 0 1 7-44v-2l1-5c2-13 4-26 8-38l4-16a81 81 0 0 1 8-23c3-8 7-16 13-22l6-9a670 670 0 0 1 35-50l1-3 4-5 13-15 17-20 2-3c6-7 5-16 5-25a2431 2431 0 0 1-1-53v-2c0-4 0-7-2-11v-9c5-6 13-6 20-4zm-7 111c-4 3-6 7-9 11l-10 12v2h-2v2l-2 1c-7 4-13 14-18 22a443 443 0 0 1-23 33l-7 11c-3 5-5 9-4 14l5 5 2 2 16 12 7 5a165 165 0 0 0 22 13c24 13 46 18 73 19h3a1999 1999 0 0 0 21 1c21 1 21 1 40-4v-7c0-8-2-13-8-19a896 896 0 0 1-5-6l-7-11-7-10-1-2-10-14-5-7-4-6-2-2-11-15-17-24c-3-6-8-10-12-15l-13-15-1-1-6-7-1-2-4 2zm-80 125 5 22 5 18c2 11 7 21 12 31l4 10 9 21 1 2 3 6 2 3c4 9 9 17 15 24l2 2a1736 1736 0 0 0 17 21l5 4 1 2 5 6 5 4 16 17 5 5 12 10 2 1c11 10 11 10 24 16h3l2 1c7-16 14-32 18-49l3-9 4-14 1-4a498 498 0 0 0 12-53l1-27a4223 4223 0 0 1 0-17 1462 1462 0 0 0-8 1l-5 2h-30a298 298 0 0 1-64-6c-12-3-23-8-33-14l-3-2a1448 1448 0 0 1-16-9l-16-11-9-7-2-2-8-5zm-15 12c-3 6-4 11-4 18l-2 7-4 14-1 3a429 429 0 0 0-9 56 474 474 0 0 0-5 92v44l3 15 1 7a432 432 0 0 0 17 81c3 17 3 17 13 31l1 3 14-4 3-1c4-1 9-3 13-6l6-2 17-11 19-13c11-5 19-14 27-24l6-6c10-10 18-21 25-33l3-5a81 81 0 0 0 13-23l6-15-3-1c-12-6-23-14-33-23l-7-5-9-8-3-4-2-1a468 468 0 0 0-20-20c-6-5-10-11-14-17a537 537 0 0 0-13-16l-1-2c-7-9-12-18-17-28h-2v-2l-3-8c-3-4-4-8-6-13l-9-21-5-13-3-8-4-12-1-3-1-8-3-7-2-8h-1z"/>
  <path fill="#77B1D8" d="m106 521 3 6 2 7 2 8c2 14 9 29 15 42l5 13 8 18c2 3 3 5 3 9h2l1 2a154 154 0 0 0 24 36l6 8c6 8 13 16 21 23l3 4 11 11 2 2 3 2 1 8c-3 12-9 23-14 34l-3 7a282 282 0 0 1-57 83c-10 8-17 22-24 33l-2 3-3 5-5-1c-5-8-7-20-9-30l-1-3v-3l-3-5-1-4-2-8-4-17v-2c-3-12-4-25-6-38v-2l-1-5-1-5-1-9v-55c0-22 0-44 2-65l1-4 3-20 2-11c2-17 4-37 11-53l3-11c0-5 1-9 3-13z"/>
  <path fill="#FDFDFD" d="M319 0h101v221h-1l-1-3c-1-4-1-4-4-6l-4-1h-4v-4c-1-4-1-4-4-6l-3-2c1-3 3-5 6-7 2-1 3-2 4-5l-2-8-6-1-4-3v-7l1-1v-8c0-3 0-3 2-5 1-4 1-4-1-8l-6-3h-2l-2-1v-4c0-3 0-5-2-8l7-4-1-9c-3-3-4-3-8-2l-16 1-24 3c-13 0-25 1-37 3l-4 1c-7 1-13 3-19 6-6 2-10 2-16 0l-3-2-2-1c-6-3-12-7-17-12-2-6 0-11 3-16l7-11 6 2c11 2 25 1 35-5l7-5 2-1c11-8 20-26 22-39 1-12-2-24-7-34l-3-3V0z"/>
  <path fill="#70ABD4" d="m205 382 4 5 10 12c9 9 16 18 23 29 3 6 8 11 12 17l12 15 1 2a229474 229474 0 0 1 10 14l7 10 11 16 13 17c7 9 7 16 7 26-13 5-26 5-40 4h-7c-44-1-44-1-60-6l-2-1c-13-3-25-11-37-18l-3-2-15-9-2-2a1215 1215 0 0 1-17-13c-6-5-6-5-7-8 1-7 3-11 7-15l5-8 16-23a13946 13946 0 0 0 12-17l13-16h2v-2h2l1-2 4-6 8-9c6-10 6-10 10-10zm-38 59c-6 6-11 13-15 21l-2 2c-2 4-4 8-4 13 1 3 3 7 6 9 6 1 11-1 16-5l6-5v-2h2l3-4 6-10 2-2 3-5c3-4 3-4 4-9-2-5-4-8-8-10-8-3-14 2-19 7z"/>
  <path fill="#77B1D8" d="m121 509 3 2a794 794 0 0 0 21 16l25 15 7 4c9 5 18 9 29 12l3 1c12 3 24 5 37 5v18l-1 18a230 230 0 0 1-15 77l-1 3-4 15c-4 0-4 0-7-2l-2-3-2-2-4-4-7-7-2-4-2-1c-3-1-4-4-7-6l-1-2-13-16-4-6c-8-10-13-20-18-32l-4-7-6-15-6-15c-6-10-9-22-12-34l-5-19-1-3-1-3v-5z"/>
  <path fill="#64A1CF" d="M315 562c1 24 0 46-6 69l-3 14c-3 15-7 29-12 44l-3 9c-4 13-9 25-15 37-12-3-20-9-29-17l-11-8c-5-4-9-7-12-12l1-7 1-2v-3l2-5v-3l3-11 2-7 5-16 1-3c3-13 4-24 4-37a622 622 0 0 1 5-40l42 1h3c6 0 11 0 17-2l5-1zm-97 152 2 2 9 7 12 10c7 7 17 13 27 16a178 178 0 0 1-28 52c-6 10-14 19-23 28l-13 14c-5 6-11 10-18 13-9 6-19 12-27 19l-12 6-6 3-13 5-2 1-10 2-3-5-2-2h4l1-2c4-10 11-18 17-26l1-3c4-6 9-10 15-14 5-4 8-9 12-14l4-5 1-3 5-5c11-16 20-32 28-50l1-3a970 970 0 0 0 18-46z"/>
  <path fill="#794528" d="M397 232h4l8 4v7c-5 4-9 6-16 7l-15 4-22 4c-6 0-11 1-16 3-4 2-9 2-14 3l-6 1h-2l-6 2-10 2h-2a1595 1595 0 0 1-53 8l-24 3h-11l-1-3-4-4c-6-1-11-1-17 3-2 2-2 5-2 8l-19 1-26 2a598 598 0 0 1-74 4c-20 1-20 1-38 6l-12 1c-2-4-3-7-2-11l2-4 7-3 2-1c14-5 29-4 43-4 27-1 54-2 80-6l26-2h2a639547 639547 0 0 1 28-2h2l12-2c8-3 16-3 24-3a3681 3681 0 0 0 25-1v-2h3a3311 3311 0 0 0 37-7c4-2 9-2 13-2l11-3c10-3 19-4 29-5 12-2 12-2 23-7l11-1z"/>
  <path fill="#9E3C14" d="m399 226 2 4-14 4-6 2c-3 2-7 3-11 3l-2 1a1128 1128 0 0 1-37 7l-11 2-18 3-17 4h-3l-12 1v2l-10 1h-3l-23 1-12 2c-7 3-15 3-22 4a8144 8144 0 0 0-51 3c-26 5-54 5-81 6-21 0-21 0-42 5-8 4-8 4-12 3l-3-3v-6c3-4 6-6 11-7a248 248 0 0 1 12-1l3-1 9-2c8-2 16-2 24-2s8 0 15-2l9-1h3l28-2c6 0 13 0 19-2a147 147 0 0 1 17-1 1021 1021 0 0 1 51-5l44-5 59-8c8-2 15-3 23-3l4-1 6-1 13-2c13-2 25-3 38-3z"/>
  <path fill="#0F6611" d="M305 1h11c3 0 3 0 5 2 8 10 10 25 9 38-3 11-10 21-16 30l-1 2c-4 5-10 8-15 12l-3 2c-15 5-29 4-44-2v-2h-3c-5 0-7-2-11-6l-4-8h-2c-4-7-3-17-1-25 6-14 21-26 35-33h4V9a13903 13903 0 0 1 9-4l3-1 2-1a36 36 0 0 1 13-2h9zm-51 37c-6 6-9 12-9 20 0 3 1 5 3 7 4-1 4-2 6-5 3-6 8-10 13-14l2-2c4-4 7-5 13-5l4 4v8l-9 7-8 6-2 2-2 7c5 3 15 2 21 0 11-4 19-15 24-26 4-9 4-18 1-28l-1-2c-21 0-41 7-56 21z"/>
  <path fill="#7B482A" d="m175 96 5 5 8 7 9 9 5 4c5 4 10 9 11 16s-1 10-5 15c-4 3-7 4-12 4l-3 1h-3c-12 0-23 2-34 4a391 391 0 0 1-69 5h-2l-14 2a153 153 0 0 1-38 2H20l-1 2c-4 0-6 0-10-2-3-4-2-6-2-11l4-5 7-1h3a26600268 26600268 0 0 1 19 0c12 0 24-1 36-4l28-2c17 0 34-2 51-4l27-3 6-1h8l-10-10-9-9-6-5c-4-4-6-6-6-12 0-3 0-3 2-5 3-2 4-3 8-2z"/>
  <path fill="#7A4729" d="m203 79 8 5 2 2a500 500 0 0 1 12 9l7 6v-2c2-6 5-10 9-15l2-3 8 2v2l6 1-4 10c-4 5-5 9-6 15 1 5 4 7 8 9l3 2 3 2c7 4 13 6 21 5l6-2c6-3 13-5 19-6h4l36-3 24-3c7-1 14-2 20-1 3 3 4 4 5 9l-3 5c-4 3-9 3-13 4a347012 347012 0 0 0-72 7h-3a174380 174380 0 0 1-33 5h-3c-8 0-13-3-19-8l-3-2-3-2a65716 65716 0 0 0-45-36l-3-3-4-4 1-9c3-2 6-2 10-1z"/>
  <path fill="#AACE42" d="M310 17c2 4 3 7 3 11v2c1 13-6 25-14 34a28 28 0 0 1-24 10h-2l-8-1c1-7 6-11 11-15l6-4 5-5c0-4-1-6-3-9-4-1-7-1-11 1-8 6-17 13-22 22l-1 2h-2c-3-3-4-6-3-11 1-8 7-16 14-20a80 80 0 0 1 51-17z"/>
  <path fill="#9DC7E3" d="m189 436 5 7c0 6-3 9-6 14l-3 4-2 2a216 216 0 0 0-7 11h-2l-1 2c-3 5-8 8-14 10h-7c-3-3-5-5-6-9 0-13 14-29 22-37 7-6 13-9 21-4z"/>
</svg>
